<mxfile host="app.diagrams.net" modified="2024-03-28T05:19:23.072Z" agent="Mozilla/5.0 (Windows NT 10.0; Win64; x64) AppleWebKit/537.36 (KHTML, like Gecko) Chrome/123.0.0.0 Safari/537.36" etag="OxUcvyzIoMwZGHvpb1P-" version="24.2.0" type="device">
  <diagram name="Page-1" id="wXtLAqsPDxk9DxpJc_F9">
    <mxGraphModel dx="794" dy="412" grid="1" gridSize="10" guides="1" tooltips="1" connect="1" arrows="1" fold="1" page="1" pageScale="1" pageWidth="850" pageHeight="1100" math="0" shadow="0">
      <root>
        <mxCell id="0" />
        <mxCell id="1" parent="0" />
        <mxCell id="ZKcBivlwOp2BjrY1oU3Z-3" value="Availabilty zone" style="whiteSpace=wrap;html=1;aspect=fixed;" parent="1" vertex="1">
          <mxGeometry x="190" y="194" width="390" height="390" as="geometry" />
        </mxCell>
        <mxCell id="ZKcBivlwOp2BjrY1oU3Z-4" value="" style="outlineConnect=0;dashed=0;verticalLabelPosition=bottom;verticalAlign=top;align=center;html=1;shape=mxgraph.aws3.cloud_2;fillColor=#F58534;gradientColor=none;" parent="1" vertex="1">
          <mxGeometry x="200" y="174" width="35" height="30" as="geometry" />
        </mxCell>
        <mxCell id="ZKcBivlwOp2BjrY1oU3Z-5" value="" style="whiteSpace=wrap;html=1;aspect=fixed;" parent="1" vertex="1">
          <mxGeometry x="220" y="224" width="330" height="330" as="geometry" />
        </mxCell>
        <mxCell id="ZKcBivlwOp2BjrY1oU3Z-9" value="" style="swimlane;startSize=0;" parent="1" vertex="1">
          <mxGeometry x="250" y="254" width="260" height="270" as="geometry" />
        </mxCell>
        <mxCell id="RlXiYMVBOGuwFZG4xhF4-10" value="" style="outlineConnect=0;dashed=0;verticalLabelPosition=bottom;verticalAlign=top;align=center;html=1;shape=mxgraph.aws3.router;fillColor=#F58536;gradientColor=none;" vertex="1" parent="ZKcBivlwOp2BjrY1oU3Z-9">
          <mxGeometry x="80" y="40" width="69" height="32" as="geometry" />
        </mxCell>
        <mxCell id="RlXiYMVBOGuwFZG4xhF4-14" value="" style="endArrow=none;html=1;rounded=0;" edge="1" parent="ZKcBivlwOp2BjrY1oU3Z-9">
          <mxGeometry width="50" height="50" relative="1" as="geometry">
            <mxPoint x="110" y="40" as="sourcePoint" />
            <mxPoint x="110" y="20" as="targetPoint" />
          </mxGeometry>
        </mxCell>
        <mxCell id="HEbRclGqsmwSDugHAFnA-1" value="Availability zone&amp;nbsp;eu-central-1a" style="text;html=1;align=center;verticalAlign=middle;resizable=0;points=[];autosize=1;strokeColor=none;fillColor=none;" parent="1" vertex="1">
          <mxGeometry x="295" y="554" width="180" height="30" as="geometry" />
        </mxCell>
        <mxCell id="HEbRclGqsmwSDugHAFnA-2" value="AWS Region eu-central-1" style="text;html=1;align=center;verticalAlign=middle;resizable=0;points=[];autosize=1;strokeColor=none;fillColor=none;" parent="1" vertex="1">
          <mxGeometry x="290" y="584" width="160" height="30" as="geometry" />
        </mxCell>
        <mxCell id="H15Y3mip7bV0BsWOqw32-4" value="" style="outlineConnect=0;dashed=0;verticalLabelPosition=bottom;verticalAlign=top;align=center;html=1;shape=mxgraph.aws3.virtual_private_cloud;fillColor=#F58534;gradientColor=none;" parent="1" vertex="1">
          <mxGeometry x="230" y="234" width="40" height="30" as="geometry" />
        </mxCell>
        <mxCell id="H15Y3mip7bV0BsWOqw32-6" value="" style="rounded=1;whiteSpace=wrap;html=1;" parent="1" vertex="1">
          <mxGeometry x="270" y="354" width="220" height="130" as="geometry" />
        </mxCell>
        <mxCell id="H15Y3mip7bV0BsWOqw32-7" value="private subnet 172.20.0.0/16" style="text;html=1;align=center;verticalAlign=middle;resizable=0;points=[];autosize=1;strokeColor=none;fillColor=none;" parent="1" vertex="1">
          <mxGeometry x="285" y="484" width="180" height="30" as="geometry" />
        </mxCell>
        <mxCell id="H15Y3mip7bV0BsWOqw32-9" value="VPC CIDR 172.20.0.0/16" style="text;html=1;align=center;verticalAlign=middle;resizable=0;points=[];autosize=1;strokeColor=none;fillColor=none;" parent="1" vertex="1">
          <mxGeometry x="300" y="524" width="160" height="30" as="geometry" />
        </mxCell>
        <mxCell id="H15Y3mip7bV0BsWOqw32-12" value="Auto Scaling group" style="points=[[0,0],[0.25,0],[0.5,0],[0.75,0],[1,0],[1,0.25],[1,0.5],[1,0.75],[1,1],[0.75,1],[0.5,1],[0.25,1],[0,1],[0,0.75],[0,0.5],[0,0.25]];outlineConnect=0;gradientColor=none;html=1;whiteSpace=wrap;fontSize=12;fontStyle=0;container=1;pointerEvents=0;collapsible=0;recursiveResize=0;shape=mxgraph.aws4.groupCenter;grIcon=mxgraph.aws4.group_auto_scaling_group;grStroke=1;strokeColor=#D86613;fillColor=none;verticalAlign=top;align=center;fontColor=#D86613;dashed=1;spacingTop=25;" parent="1" vertex="1">
          <mxGeometry x="280" y="384" width="60" height="80" as="geometry" />
        </mxCell>
        <mxCell id="H15Y3mip7bV0BsWOqw32-14" value="" style="aspect=fixed;sketch=0;html=1;dashed=0;whitespace=wrap;fillColor=#2875E2;strokeColor=#ffffff;points=[[0.005,0.63,0],[0.1,0.2,0],[0.9,0.2,0],[0.5,0,0],[0.995,0.63,0],[0.72,0.99,0],[0.5,1,0],[0.28,0.99,0]];shape=mxgraph.kubernetes.icon2;kubernetesLabel=1;prIcon=node" parent="1" vertex="1">
          <mxGeometry x="350" y="416" width="50" height="48" as="geometry" />
        </mxCell>
        <mxCell id="H15Y3mip7bV0BsWOqw32-15" value="" style="aspect=fixed;sketch=0;html=1;dashed=0;whitespace=wrap;fillColor=#2875E2;strokeColor=#ffffff;points=[[0.005,0.63,0],[0.1,0.2,0],[0.9,0.2,0],[0.5,0,0],[0.995,0.63,0],[0.72,0.99,0],[0.5,1,0],[0.28,0.99,0]];shape=mxgraph.kubernetes.icon2;prIcon=node" parent="1" vertex="1">
          <mxGeometry x="425" y="416" width="50" height="48" as="geometry" />
        </mxCell>
        <mxCell id="H15Y3mip7bV0BsWOqw32-16" value="k8s master" style="text;html=1;align=center;verticalAlign=middle;resizable=0;points=[];autosize=1;strokeColor=none;fillColor=none;" parent="1" vertex="1">
          <mxGeometry x="410" y="454" width="80" height="30" as="geometry" />
        </mxCell>
        <mxCell id="DLmDLu5xlJWcMtGqvL5R-1" value="Two auto scaling group&lt;div&gt;i) for master node&lt;/div&gt;&lt;div&gt;ii) for worker node&lt;/div&gt;" style="text;html=1;align=center;verticalAlign=middle;resizable=0;points=[];autosize=1;strokeColor=none;fillColor=none;" parent="1" vertex="1">
          <mxGeometry x="340" y="354" width="150" height="60" as="geometry" />
        </mxCell>
        <mxCell id="RlXiYMVBOGuwFZG4xhF4-1" value="" style="outlineConnect=0;dashed=0;verticalLabelPosition=bottom;verticalAlign=top;align=center;html=1;shape=mxgraph.aws3.internet_gateway;fillColor=#F58534;gradientColor=none;" vertex="1" parent="1">
          <mxGeometry x="331" y="204" width="69" height="60" as="geometry" />
        </mxCell>
        <mxCell id="RlXiYMVBOGuwFZG4xhF4-2" value="&lt;font color=&quot;#ff430a&quot;&gt;Internet gateway&lt;/font&gt;" style="text;html=1;align=center;verticalAlign=middle;resizable=0;points=[];autosize=1;strokeColor=none;fillColor=none;" vertex="1" parent="1">
          <mxGeometry x="315" y="254" width="110" height="30" as="geometry" />
        </mxCell>
        <mxCell id="RlXiYMVBOGuwFZG4xhF4-8" value="" style="outlineConnect=0;dashed=0;verticalLabelPosition=bottom;verticalAlign=top;align=center;html=1;shape=mxgraph.aws3.internet_2;fillColor=#D2D3D3;gradientColor=none;" vertex="1" parent="1">
          <mxGeometry x="331" y="130" width="60" height="44" as="geometry" />
        </mxCell>
        <mxCell id="RlXiYMVBOGuwFZG4xhF4-12" value="" style="endArrow=none;html=1;rounded=0;entryX=0.5;entryY=1;entryDx=0;entryDy=0;entryPerimeter=0;" edge="1" parent="1" target="RlXiYMVBOGuwFZG4xhF4-8">
          <mxGeometry width="50" height="50" relative="1" as="geometry">
            <mxPoint x="360.5" y="209" as="sourcePoint" />
            <mxPoint x="361" y="180" as="targetPoint" />
          </mxGeometry>
        </mxCell>
        <mxCell id="RlXiYMVBOGuwFZG4xhF4-15" value="Route table" style="text;html=1;align=center;verticalAlign=middle;resizable=0;points=[];autosize=1;strokeColor=none;fillColor=none;" vertex="1" parent="1">
          <mxGeometry x="325.5" y="324" width="80" height="30" as="geometry" />
        </mxCell>
        <mxCell id="RlXiYMVBOGuwFZG4xhF4-16" value="&lt;font color=&quot;#ff2f0f&quot;&gt;Internet&lt;/font&gt;" style="text;html=1;align=center;verticalAlign=middle;resizable=0;points=[];autosize=1;strokeColor=none;fillColor=none;" vertex="1" parent="1">
          <mxGeometry x="325.5" y="100" width="60" height="30" as="geometry" />
        </mxCell>
        <mxCell id="RlXiYMVBOGuwFZG4xhF4-18" value="" style="endArrow=none;html=1;rounded=0;" edge="1" parent="1">
          <mxGeometry width="50" height="50" relative="1" as="geometry">
            <mxPoint x="360.5" y="354" as="sourcePoint" />
            <mxPoint x="360.5" y="343" as="targetPoint" />
          </mxGeometry>
        </mxCell>
      </root>
    </mxGraphModel>
  </diagram>
</mxfile>
